<svg width="96" height="84" viewBox="0 0 96 84" fill="none" xmlns="http://www.w3.org/2000/svg">
<g clip-path="url(#clip0)">
<path fill-rule="evenodd" clip-rule="evenodd" d="M17.3682 64.052C17.6692 63.7209 18.036 63.4563 18.4451 63.2752C18.8543 63.094 19.2967 63.0003 19.7442 63L93.0562 63.06C93.3684 63.0606 93.6737 63.1519 93.935 63.3228C94.1963 63.4936 94.4024 63.7367 94.5282 64.0224C94.654 64.3081 94.6941 64.6242 94.6437 64.9323C94.5933 65.2404 94.4545 65.5273 94.2442 65.758L78.6322 82.948C78.3309 83.2793 77.9638 83.5441 77.5543 83.7252C77.1448 83.9064 76.702 84 76.2542 84L2.94417 83.94C2.63197 83.9394 2.32667 83.8481 2.06535 83.6772C1.80404 83.5064 1.59795 83.2634 1.47214 82.9776C1.34632 82.6919 1.30619 82.3758 1.35661 82.0677C1.40703 81.7596 1.54584 81.4727 1.75617 81.242L17.3682 64.052ZM94.2442 49.742C94.4545 49.9727 94.5933 50.2596 94.6437 50.5677C94.6941 50.8758 94.654 51.1919 94.5282 51.4776C94.4024 51.7634 94.1963 52.0064 93.935 52.1772C93.6737 52.3481 93.3684 52.4394 93.0562 52.44L19.7462 52.5C19.2984 52.5 18.8555 52.4064 18.446 52.2252C18.0365 52.0441 17.6694 51.7793 17.3682 51.448L1.75617 34.248C1.54584 34.0173 1.40703 33.7304 1.35661 33.4223C1.30619 33.1142 1.34632 32.7981 1.47214 32.5124C1.59795 32.2266 1.80404 31.9836 2.06535 31.8128C2.32667 31.6419 2.63197 31.5506 2.94417 31.55L76.2562 31.49C76.7036 31.4903 77.1461 31.584 77.5552 31.7652C77.9644 31.9463 78.3312 32.2109 78.6322 32.542L94.2442 49.742ZM17.3682 1.052C17.6692 0.720916 18.036 0.456328 18.4451 0.275176C18.8543 0.0940234 19.2967 0.000298083 19.7442 0L93.0562 0.06C93.3684 0.0606347 93.6737 0.151917 93.935 0.322758C94.1963 0.493599 94.4024 0.736647 94.5282 1.02238C94.654 1.30811 94.6941 1.62423 94.6437 1.93234C94.5933 2.24044 94.4545 2.52728 94.2442 2.758L78.6322 19.948C78.3309 20.2793 77.9638 20.5441 77.5543 20.7252C77.1448 20.9064 76.702 21 76.2542 21L2.94417 20.94C2.63197 20.9394 2.32667 20.8481 2.06535 20.6772C1.80404 20.5064 1.59795 20.2634 1.47214 19.9776C1.34632 19.6919 1.30619 19.3758 1.35661 19.0677C1.40703 18.7596 1.54584 18.4727 1.75617 18.242L17.3682 1.052Z" fill="#9945FF"/>
</g>
<defs>
<clipPath id="clip0">
<rect width="96" height="84" fill="white"/>
</clipPath>
</defs>
</svg>
