<svg width="24" height="24" viewBox="0 0 24 24" fill="none" xmlns="http://www.w3.org/2000/svg">
    <path d="M19.2734 17.4593C19.0452 17.4594 18.8239 17.5384 18.6464 17.6831C18.469 17.828 18.3462 18.0298 18.2984 18.255L14.5341 18.0712C14.546 17.9995 14.5523 17.927 14.5527 17.8542C14.5523 17.7233 14.534 17.5932 14.4982 17.4673L15.8646 16.6717C16.0279 16.8753 16.2624 17.008 16.5198 17.0424C16.7772 17.0768 17.0379 17.0104 17.2481 16.8568C17.4585 16.7031 17.6023 16.474 17.6502 16.2164C17.698 15.959 17.6461 15.6928 17.5053 15.4728C17.3645 15.2527 17.1454 15.0955 16.8931 15.0335C16.6408 14.9716 16.3746 15.0095 16.1493 15.1397C15.9239 15.2698 15.7566 15.4821 15.6818 15.7329C15.607 15.9837 15.6303 16.254 15.747 16.488L14.42 17.259C14.2684 16.9346 13.9989 16.6814 13.6674 16.5518C13.3358 16.4222 12.9675 16.4262 12.6388 16.5628C12.3101 16.6995 12.046 16.9584 11.9011 17.286C11.7563 17.6136 11.7419 17.9849 11.8607 18.3229L9.40326 18.9291C9.3865 18.5896 9.24698 18.2682 9.01112 18.0257L9.45416 17.4058C9.69692 17.4898 9.96235 17.4768 10.1959 17.3694C10.4294 17.2621 10.6133 17.0686 10.7098 16.8287C10.8063 16.5887 10.808 16.3206 10.7146 16.0795C10.6212 15.8383 10.4397 15.6424 10.2076 15.532C9.97542 15.4217 9.71019 15.4052 9.46638 15.4861C9.22258 15.5669 9.01873 15.7389 8.89674 15.9667C8.77475 16.1945 8.74389 16.4608 8.8105 16.7108C8.87711 16.9608 9.03612 17.1757 9.25487 17.3111L8.84696 17.8818C8.55889 17.6625 8.19639 17.5676 7.83901 17.6177L7.41461 15.1775C7.6077 15.1345 7.78946 15.0505 7.9477 14.9309C8.10594 14.8113 8.237 14.659 8.33208 14.484C8.42716 14.3091 8.48407 14.1157 8.49898 13.9168C8.51389 13.718 8.48646 13.5181 8.41853 13.3307C8.3506 13.1434 8.24374 12.9729 8.10513 12.8307C7.96652 12.6884 7.79935 12.5778 7.61486 12.5061C7.43035 12.4343 7.23278 12.4033 7.03541 12.415C6.83803 12.4266 6.64541 12.4807 6.47047 12.5737L5.40158 10.4726C5.62902 10.3562 5.82046 10.179 5.95502 9.96049L6.8411 10.1962C6.83402 10.2442 6.83019 10.2925 6.82963 10.3409C6.82852 10.5937 6.92118 10.8378 7.08938 11.0251C7.25759 11.2125 7.48917 11.3296 7.73861 11.3535C7.98806 11.3773 8.23731 11.3062 8.4374 11.154C8.63748 11.0018 8.77391 10.7797 8.81988 10.5311C8.86584 10.2826 8.81801 10.0258 8.6858 9.81106C8.55358 9.59633 8.34652 9.43926 8.10535 9.37072C7.86417 9.3022 7.60631 9.32716 7.38245 9.44071C7.15859 9.55426 6.98492 9.74818 6.89558 9.98435L6.05825 9.76158C6.17188 9.48686 6.19476 9.18252 6.12349 8.89366L8.586 7.7509C8.80717 8.03119 9.12655 8.21513 9.47824 8.26475C9.82992 8.31437 10.1871 8.22589 10.476 8.01757C10.7649 7.80924 10.9634 7.49697 11.0308 7.1452C11.0981 6.79343 11.029 6.42902 10.8378 6.12716L12.4149 4.57357C12.6072 4.69875 12.8276 4.77334 13.0558 4.79055V5.47621C12.8022 5.50397 12.5687 5.62877 12.4035 5.82494C12.2383 6.0211 12.1538 6.27369 12.1676 6.53074C12.1814 6.78778 12.2923 7.02972 12.4775 7.20676C12.6628 7.38381 12.9082 7.48248 13.1634 7.48248C13.4185 7.48248 13.664 7.38381 13.8491 7.20676C14.0344 7.02972 14.1453 6.78778 14.1591 6.53074C14.1729 6.27369 14.0884 6.0211 13.9233 5.82494C13.758 5.62877 13.5245 5.50397 13.2709 5.47621V4.79127C13.4681 4.77628 13.6598 4.71856 13.833 4.62203L15.5606 6.61319C15.4145 6.80633 15.3207 7.03451 15.2885 7.2753C15.2562 7.51608 15.2866 7.7612 15.3767 7.98654C15.4668 8.21188 15.6134 8.40971 15.8021 8.56056C15.991 8.7114 16.2155 8.81008 16.4535 8.84691C16.6915 8.88373 16.935 8.85743 17.1599 8.77057C17.3849 8.68372 17.5835 8.53932 17.7364 8.35155C17.8893 8.16378 17.9911 7.93912 18.0318 7.69964C18.0725 7.46016 18.0507 7.21411 17.9687 6.98568L18.507 6.67973C18.6713 6.87638 18.9039 7.00206 19.1571 7.03096C19.4104 7.05986 19.6649 6.98977 19.8685 6.8351C20.0721 6.68043 20.2092 6.45294 20.2517 6.19941C20.2941 5.94588 20.2387 5.68558 20.0967 5.47203C19.9548 5.25849 19.7371 5.10793 19.4885 5.05131C19.2399 4.9947 18.9793 5.03634 18.7601 5.16767C18.5411 5.29899 18.3802 5.51002 18.3106 5.75737C18.2409 6.00471 18.2679 6.26957 18.3859 6.49747L17.8805 6.78677C17.7782 6.59864 17.6343 6.4368 17.4601 6.31378C17.2858 6.19075 17.0858 6.10985 16.8756 6.07733C16.6653 6.04481 16.4505 6.06156 16.2478 6.12625C16.0449 6.19096 15.8596 6.30189 15.7061 6.45045L14.0151 4.50197C14.1828 4.36959 14.3182 4.20008 14.4107 4.00653L15.8918 4.25533C15.9477 4.50562 16.0965 4.72483 16.3075 4.868C16.5186 5.01118 16.7759 5.06747 17.0268 5.02533C17.2776 4.98319 17.503 4.84581 17.6566 4.64138C17.8103 4.43693 17.8806 4.18093 17.8531 3.92586C17.8257 3.67078 17.7026 3.43599 17.5089 3.2696C17.3153 3.10322 17.066 3.01787 16.8121 3.03105C16.5581 3.04424 16.3187 3.15496 16.1431 3.34052C15.9674 3.52606 15.8688 3.77238 15.8675 4.02895L14.491 3.79823C14.5619 3.55813 14.5676 3.30323 14.5076 3.06016C14.4474 2.81709 14.3237 2.59477 14.1493 2.41642C13.9749 2.23808 13.7562 2.11026 13.5161 2.04632C13.276 1.98239 13.0233 1.98467 12.7844 2.05295C12.5455 2.12123 12.3291 2.25299 12.158 2.43446C11.9867 2.61593 11.867 2.84046 11.8112 3.08458C11.7555 3.32871 11.7657 3.58346 11.8409 3.82223C11.9161 4.061 12.0534 4.27502 12.2386 4.44194L10.7037 5.95213C10.4665 5.67708 10.1319 5.50675 9.77174 5.47766V4.42096C10.0254 4.3932 10.2589 4.2684 10.4241 4.07224C10.5893 3.87608 10.6737 3.62348 10.66 3.36644C10.6462 3.10939 10.5353 2.86745 10.35 2.69041C10.1648 2.51337 9.91936 2.41469 9.66421 2.41469C9.40906 2.41469 9.16362 2.51337 8.97839 2.69041C8.79317 2.86745 8.68225 3.10939 8.66847 3.36644C8.65469 3.62348 8.7391 3.87608 8.90432 4.07224C9.06955 4.2684 9.30302 4.3932 9.55668 4.42096V5.47621C9.32331 5.49383 9.09818 5.57085 8.90232 5.70007C8.70647 5.82929 8.54628 6.0065 8.43672 6.21513C8.32716 6.42376 8.27182 6.65701 8.27587 6.89307C8.27991 7.12915 8.3432 7.36033 8.45984 7.56502L6.05395 8.68175C5.96696 8.47303 5.83118 8.28864 5.65823 8.14435L6.60022 6.44033C6.68283 6.46235 6.76785 6.47376 6.85328 6.47432C7.09779 6.47481 7.33401 6.38485 7.51719 6.22146C7.70038 6.05806 7.81784 5.83258 7.84733 5.58769C7.87682 5.3428 7.81629 5.0955 7.67721 4.8926C7.53814 4.6897 7.33016 4.54529 7.09264 4.4867C6.85512 4.42811 6.60456 4.4594 6.38838 4.57466C6.17218 4.68991 6.00538 4.88114 5.91955 5.11212C5.8337 5.34311 5.83477 5.59783 5.92256 5.82808C6.01035 6.05831 6.17876 6.2481 6.39591 6.36149L5.47901 8.01923C5.27967 7.90059 5.05407 7.83417 4.82277 7.82605C4.59147 7.81793 4.36184 7.86834 4.1548 7.97271C3.94777 8.07708 3.76993 8.23208 3.63749 8.42356C3.50506 8.61505 3.42224 8.83695 3.3966 9.06901C3.37095 9.30107 3.4033 9.53592 3.49068 9.75213C3.57806 9.96835 3.7177 10.159 3.89686 10.3069C4.07603 10.4547 4.28902 10.5549 4.51641 10.5983C4.7438 10.6418 4.97836 10.6272 5.1987 10.5558L6.28479 12.6908C6.01033 12.8953 5.82039 13.1949 5.75142 13.532L4.96285 13.2977C4.98356 13.2171 4.99415 13.1342 4.99439 13.051C4.99463 12.8044 4.90511 12.5663 4.74282 12.382C4.58055 12.1976 4.35681 12.0798 4.1141 12.0509C3.87139 12.022 3.62661 12.084 3.42624 12.2252C3.22587 12.3664 3.08386 12.5769 3.02719 12.8167C2.97051 13.0566 3.00311 13.3091 3.1188 13.5263C3.23449 13.7435 3.4252 13.9102 3.65473 13.9949C3.88427 14.0796 4.13662 14.0763 4.3639 13.9856C4.59117 13.8949 4.77752 13.7232 4.88757 13.5031L5.72347 13.7519C5.72347 13.7729 5.72347 13.7924 5.72347 13.8134C5.72347 14.0473 5.78168 14.2775 5.89278 14.4828C6.00388 14.6882 6.16431 14.8621 6.35935 14.9887L5.82311 15.6989C5.63159 15.5292 5.38291 15.4399 5.12816 15.4494C4.8734 15.4588 4.63193 15.5664 4.45335 15.75C4.27477 15.9335 4.17265 16.1791 4.16796 16.4363C4.16327 16.6934 4.25638 16.9426 4.42815 17.1326C4.59992 17.3227 4.83731 17.4391 5.09155 17.4581C5.34578 17.477 5.59755 17.397 5.79513 17.2345C5.9927 17.072 6.12108 16.8392 6.15389 16.5842C6.1867 16.3292 6.12143 16.0711 5.97151 15.8631L6.55506 15.0957C6.73066 15.1735 6.92032 15.2136 7.11208 15.2136C7.14147 15.2136 7.17086 15.2136 7.19954 15.2092L7.62968 17.6647C7.41976 17.7273 7.2275 17.839 7.06862 17.9909C6.90973 18.1427 6.78874 18.3304 6.71553 18.5385C6.64234 18.7466 6.619 18.9693 6.64745 19.1882C6.6759 19.4071 6.75532 19.6161 6.87921 19.7982C7.0031 19.9802 7.16794 20.1301 7.36026 20.2354C7.55258 20.3409 7.7669 20.3989 7.98569 20.4047C8.20447 20.4105 8.42151 20.3639 8.61906 20.2689C8.81661 20.1738 8.98903 20.0329 9.12224 19.8577L11.1295 20.7596C11.1123 20.8343 11.1034 20.9107 11.103 20.9874C11.1021 21.2357 11.1919 21.4755 11.3553 21.6611C11.5187 21.8466 11.7441 21.9649 11.9885 21.9934C12.2329 22.0218 12.4791 21.9584 12.68 21.8152C12.881 21.672 13.0225 21.4591 13.0777 21.2172C13.1328 20.9753 13.0977 20.7214 12.9789 20.5041C12.8602 20.2867 12.6662 20.1211 12.434 20.039C12.2019 19.9568 11.9479 19.9639 11.7205 20.0588C11.4933 20.1537 11.3087 20.3299 11.2019 20.5535L9.24268 19.6733C9.3286 19.5138 9.38267 19.3389 9.40183 19.1583L11.9533 18.5283C12.0499 18.7067 12.184 18.8616 12.3461 18.9822C12.5083 19.1029 12.6946 19.1864 12.8921 19.2268C13.0895 19.2672 13.2933 19.2637 13.4893 19.2164C13.6852 19.1691 13.8686 19.0792 14.0265 18.9529L14.9814 19.7839C14.8741 20.0192 14.8602 20.2869 14.9426 20.5322C15.025 20.7774 15.1974 20.9814 15.4243 21.1025C15.6512 21.2234 15.9155 21.2521 16.1627 21.1825C16.4099 21.113 16.6213 20.9505 16.7535 20.7286C16.8857 20.5066 16.9285 20.242 16.8733 19.9892C16.818 19.7363 16.6688 19.5144 16.4564 19.3691C16.244 19.2237 15.9845 19.166 15.7312 19.2078C15.4779 19.2496 15.2501 19.3877 15.0946 19.5937L14.1864 18.8031C14.322 18.6559 14.4246 18.4807 14.4868 18.2897L18.2798 18.4741C18.2812 18.6726 18.3409 18.8663 18.4512 19.0307C18.5615 19.195 18.7177 19.3228 18.8999 19.3978C19.0821 19.4727 19.2822 19.4916 19.475 19.452C19.6679 19.4124 19.8447 19.3161 19.9834 19.1752C20.122 19.0343 20.2162 18.8552 20.2541 18.6603C20.292 18.4656 20.2718 18.2638 20.1962 18.0804C20.1206 17.8972 19.9929 17.7406 19.8292 17.6305C19.6654 17.5203 19.4731 17.4615 19.2763 17.4615L19.2734 17.4593Z" fill="#FF0012"/>
</svg>
