<?xml version="1.0" encoding="utf-8"?>
<svg width="15" height="15" viewBox="0 0 15 15" fill="none" style="color:white" xmlns="http://www.w3.org/2000/svg">
  <path d="M0.905583 1.16645C0.779062 1.17113 0.661397 1.2331 0.585902 1.33464C0.510927 1.4367 0.485935 1.56688 0.518216 1.68926L2.15781 7.83326L0.518216 13.9746C0.475523 14.1334 0.530192 14.3026 0.657757 14.4063C0.785322 14.5099 0.962349 14.5286 1.10865 14.4542L13.6045 8.20554C13.7472 8.13576 13.8372 7.99048 13.8372 7.83218C13.8372 7.67336 13.7472 7.52808 13.6045 7.4583L1.10865 1.20965C1.04565 1.17789 0.975879 1.1633 0.905595 1.16643L0.905583 1.16645ZM1.56058 2.36879L12.4851 7.83321L1.56058 13.2951L2.80601 8.6305L8.03547 7.83171L2.80601 7.03345L1.56058 2.36879Z" fill="black" stroke-width="0.416667" stroke-linejoin="round" style="stroke: rgb(255, 255, 255);"/>
</svg>