<svg width="94" height="25" viewBox="0 0 94 25" fill="none" xmlns="http://www.w3.org/2000/svg">
<g clip-path="url(#clip0)">
<path d="M32.4382 20.9012C27.524 20.9012 24.4395 17.4191 24.4395 12.748C24.4395 8.12021 27.5466 4.59473 32.4608 4.59473C36.4272 4.59473 38.741 6.64388 39.7105 9.70676H37.0659C36.2284 7.8094 34.8623 6.84174 32.4581 6.84174C29.1079 6.84174 27.103 9.46191 27.103 12.748C27.103 16.034 29.1079 18.6533 32.4581 18.6533C35.0358 18.6533 36.4245 17.5076 37.0659 15.7883H39.7105C38.9832 18.7192 36.3829 20.9012 32.4382 20.9012Z" fill="#0021A5"/>
<path d="M50.9038 20.6146H48.3035C48.2208 20.1121 48.1839 19.6031 48.1932 19.094V18.7633H48.1716C47.7749 19.7987 46.7395 20.901 44.5575 20.901C42.0015 20.901 40.5469 19.3144 40.5469 17.5074C40.5469 14.2015 44.4256 14.1139 46.0583 13.8491C47.5572 13.607 48.1743 13.3865 48.1743 12.4388C48.1743 11.491 47.3611 10.8748 45.9706 10.8748C44.7364 10.8748 43.8546 11.5578 43.7887 12.7035H41.2968C41.407 10.8305 42.8833 8.8916 45.9245 8.8916C49.7147 8.8916 50.6842 11.1612 50.6842 13.607V17.989C50.6833 18.8518 50.7276 20.0192 50.9038 20.6146ZM48.2375 14.1798C47.9728 14.8629 47.334 15.3914 45.461 15.7221C43.8962 16.0085 43.0812 16.4449 43.0812 17.4632C43.0812 18.3667 43.8745 19.028 45.1963 19.028C46.7612 19.028 48.2375 17.9041 48.2375 15.3697V14.1798Z" fill="#0021A5"/>
<path d="M56.5016 10.8516C55.5078 10.8516 54.6512 11.4471 54.6512 12.262C54.6512 13.3643 55.9731 13.6724 57.8903 14.1133C59.8952 14.5542 61.3498 15.5011 61.3498 17.3307C61.3498 19.6003 59.1679 20.9221 56.6516 20.9221C54.316 20.9221 52.1124 19.865 51.8477 17.1274H54.3775C54.5979 18.3833 55.3713 18.957 56.6913 18.957C57.771 18.957 58.7848 18.5161 58.7848 17.4581C58.7848 16.3341 57.6608 16.1579 55.8321 15.717C54.0025 15.2987 52.1738 14.4395 52.1738 12.3677C52.1738 10.296 54.2013 8.9082 56.5368 8.9082C59.0052 8.9082 60.8556 10.1641 61.1203 12.6325H58.7053C58.5291 11.382 57.5379 10.8516 56.5016 10.8516Z" fill="#0021A5"/>
<path d="M74.153 14.8856C74.153 18.4337 71.9927 20.9463 68.9741 20.9463C67.0126 20.9463 65.735 19.91 65.2697 18.5439H65.2471V25.0004H62.627V9.22607H65.2715V11.2978C65.6898 10.0636 67.0117 8.91797 68.9759 8.91797C71.9927 8.91436 74.153 11.3601 74.153 14.8856ZM71.5744 14.8856C71.5744 12.7262 70.3402 11.0078 68.3353 11.0078C66.3738 11.0078 65.1622 12.5284 65.0736 14.6435V14.8856C65.0736 17.1335 66.1091 18.8303 68.3353 18.8303C70.3845 18.8303 71.5744 17.0866 71.5744 14.8856Z" fill="#0021A5"/>
<path d="M86.141 15.6127H77.3707C77.5514 17.6844 78.8687 18.8743 80.6541 18.8743C81.9542 18.8743 83.0339 18.3891 83.4549 17.2435H85.9847C85.3017 19.5574 83.3402 20.9235 80.6541 20.9235C77.2379 20.9235 74.9023 18.4777 74.9023 14.8853C74.9023 11.4258 77.3264 8.91406 80.6541 8.91406C84.5319 8.91406 86.1185 11.911 86.141 15.1284V15.6127ZM83.6112 13.7623C83.4351 11.9769 82.3987 10.8973 80.636 10.8973C78.8733 10.8973 77.6833 12.0212 77.4186 13.7623H83.6112Z" fill="#0021A5"/>
<path d="M90.0638 15.2156V20.6149H87.5078V9.22534H90.0196V11.6494H90.0638C90.5047 10.1072 91.6061 9.09343 93.4131 9.00488V11.5618C91.2538 11.5799 90.0638 12.9686 90.0638 15.2156Z" fill="#0021A5"/>
<path d="M20.5018 19.3166C20.2141 19.3167 19.9352 19.4154 19.7116 19.5962C19.488 19.7771 19.3332 20.0292 19.273 20.3105L14.5287 20.081C14.5438 19.9914 14.5517 19.9008 14.5522 19.8099C14.5517 19.6464 14.5286 19.4838 14.4835 19.3266L16.2056 18.3327C16.4114 18.5871 16.707 18.7528 17.0314 18.7958C17.3558 18.8388 17.6843 18.7558 17.9493 18.5639C18.2144 18.3719 18.3957 18.0857 18.456 17.764C18.5163 17.4424 18.4509 17.1099 18.2734 16.835C18.0959 16.5601 17.8198 16.3637 17.5018 16.2863C17.1839 16.2089 16.8484 16.2563 16.5644 16.4189C16.2804 16.5814 16.0695 16.8467 15.9752 17.16C15.8809 17.4733 15.9103 17.8109 16.0574 18.1032L14.385 19.0664C14.1939 18.6611 13.8542 18.3448 13.4364 18.1829C13.0185 18.021 12.5544 18.026 12.1401 18.1967C11.7258 18.3674 11.393 18.6908 11.2104 19.1001C11.0279 19.5093 11.0097 19.9731 11.1595 20.3954L8.0623 21.1526C8.04118 20.7286 7.86534 20.3271 7.56808 20.0241L8.12645 19.2498C8.4324 19.3547 8.76692 19.3384 9.06124 19.2043C9.35557 19.0702 9.58735 18.8285 9.70893 18.5288C9.83051 18.229 9.83266 17.8941 9.71494 17.5929C9.59722 17.2916 9.36856 17.0469 9.07598 16.909C8.7834 16.7712 8.44912 16.7506 8.14185 16.8516C7.83458 16.9526 7.57767 17.1674 7.42393 17.452C7.27018 17.7366 7.23129 18.0692 7.31523 18.3816C7.39918 18.6939 7.59959 18.9623 7.87528 19.1314L7.36118 19.8443C6.99813 19.5704 6.54126 19.4518 6.09085 19.5145L5.55598 16.4661C5.79933 16.4125 6.02841 16.3075 6.22784 16.1581C6.42727 16.0087 6.59245 15.8184 6.71228 15.5999C6.83211 15.3814 6.90383 15.1398 6.92262 14.8913C6.94141 14.6429 6.90684 14.3932 6.82123 14.1592C6.73562 13.9252 6.60094 13.7122 6.42625 13.5345C6.25155 13.3568 6.04087 13.2186 5.80835 13.129C5.57582 13.0394 5.32682 13.0006 5.07807 13.0152C4.82931 13.0297 4.58654 13.0973 4.36606 13.2135L3.01893 10.5888C3.30558 10.4434 3.54685 10.2221 3.71644 9.94909L4.83317 10.2436C4.82425 10.3035 4.81942 10.3638 4.81872 10.4243C4.81732 10.7401 4.9341 11.045 5.14609 11.279C5.35808 11.5131 5.64994 11.6594 5.96432 11.6892C6.2787 11.719 6.59284 11.6301 6.84501 11.44C7.09718 11.2499 7.26912 10.9724 7.32705 10.6619C7.38498 10.3515 7.3247 10.0307 7.15807 9.76242C6.99143 9.49418 6.73048 9.29797 6.42652 9.21236C6.12256 9.12676 5.79758 9.15794 5.51544 9.29978C5.23331 9.44163 5.01443 9.68387 4.90184 9.9789L3.84654 9.70062C3.98975 9.35744 4.01858 8.97726 3.92876 8.61641L7.0323 7.18888C7.31104 7.53902 7.71356 7.7688 8.15679 7.83078C8.60002 7.89277 9.05013 7.78224 9.41424 7.522C9.77834 7.26176 10.0286 6.87168 10.1135 6.43225C10.1983 5.99282 10.1113 5.53759 9.87022 5.16051L11.8579 3.21978C12.1003 3.37615 12.378 3.46933 12.6657 3.49083V4.34735C12.346 4.38203 12.0517 4.53793 11.8435 4.78298C11.6353 5.02802 11.5289 5.34356 11.5462 5.66466C11.5636 5.98576 11.7034 6.28799 11.9368 6.50915C12.1703 6.73031 12.4796 6.85357 12.8012 6.85357C13.1228 6.85357 13.4321 6.73031 13.6655 6.50915C13.899 6.28799 14.0388 5.98576 14.0561 5.66466C14.0735 5.34356 13.9671 5.02802 13.7589 4.78298C13.5506 4.53793 13.2564 4.38203 12.9367 4.34735V3.49173C13.1853 3.473 13.4269 3.40089 13.6451 3.28031L15.8225 5.76766C15.6383 6.00893 15.5201 6.29397 15.4795 6.59476C15.4388 6.89555 15.4771 7.20175 15.5907 7.48324C15.7042 7.76474 15.889 8.01186 16.1269 8.2003C16.3649 8.38873 16.6478 8.51201 16.9478 8.55801C17.2478 8.60401 17.5547 8.57115 17.8381 8.46265C18.1216 8.35416 18.372 8.17377 18.5646 7.93921C18.7573 7.70465 18.8856 7.424 18.9369 7.12485C18.9882 6.82569 18.9608 6.51833 18.8574 6.23297L19.5359 5.85078C19.7429 6.09643 20.0361 6.25344 20.3552 6.28954C20.6744 6.32564 20.9952 6.23808 21.2518 6.04487C21.5084 5.85166 21.6812 5.56748 21.7347 5.25077C21.7882 4.93406 21.7183 4.60889 21.5394 4.34213C21.3605 4.07537 21.0862 3.88729 20.7729 3.81657C20.4596 3.74585 20.1311 3.79787 19.8549 3.96192C19.5788 4.12597 19.376 4.38959 19.2883 4.69857C19.2005 5.00755 19.2345 5.33841 19.3832 5.6231L18.7463 5.9845C18.6173 5.74949 18.436 5.54732 18.2164 5.39364C17.9968 5.23995 17.7447 5.13889 17.4798 5.09826C17.2148 5.05764 16.944 5.07856 16.6885 5.15938C16.4329 5.24021 16.1993 5.37879 16.0059 5.56437L13.8746 3.13033C14.086 2.96496 14.2567 2.75321 14.3733 2.51143L16.2399 2.82223C16.3104 3.13489 16.4979 3.40873 16.7638 3.58758C17.0298 3.76643 17.3541 3.83675 17.6703 3.78411C17.9864 3.73147 18.2705 3.55986 18.4641 3.30448C18.6578 3.04909 18.7464 2.72929 18.7118 2.41066C18.6772 2.09202 18.522 1.79871 18.278 1.59086C18.034 1.38302 17.7198 1.2764 17.3997 1.29287C17.0796 1.30934 16.7779 1.44766 16.5566 1.67945C16.3352 1.91123 16.2109 2.21893 16.2092 2.53944L14.4745 2.25122C14.5638 1.95129 14.571 1.63287 14.4953 1.32923C14.4195 1.02559 14.2636 0.747861 14.0438 0.525076C13.824 0.30229 13.5484 0.14262 13.2458 0.0627494C12.9432 -0.0171216 12.6247 -0.0142625 12.3236 0.0710288C12.0225 0.15632 11.7498 0.320913 11.5341 0.54761C11.3183 0.774306 11.1674 1.05478 11.0971 1.35974C11.0268 1.6647 11.0397 1.98294 11.1345 2.28121C11.2292 2.57948 11.4023 2.84683 11.6357 3.05534L9.70126 4.94186C9.40233 4.59828 8.98067 4.3855 8.5267 4.34916V3.02914C8.8464 2.99446 9.14064 2.83856 9.34887 2.59351C9.5571 2.34847 9.66348 2.03293 9.64612 1.71183C9.62876 1.39073 9.48897 1.0885 9.25553 0.867337C9.02208 0.646177 8.71275 0.522913 8.39118 0.522913C8.06961 0.522913 7.76027 0.646177 7.52683 0.867337C7.29339 1.0885 7.1536 1.39073 7.13623 1.71183C7.11887 2.03293 7.22525 2.34847 7.43348 2.59351C7.64172 2.83856 7.93596 2.99446 8.25565 3.02914V4.34735C7.96154 4.36936 7.6778 4.46557 7.43096 4.62699C7.18412 4.78842 6.98223 5.00978 6.84415 5.27041C6.70608 5.53103 6.63633 5.8224 6.64143 6.11729C6.64652 6.41219 6.72629 6.70098 6.87329 6.95668L3.84112 8.35169C3.73148 8.09096 3.56036 7.86063 3.34239 7.68038L4.52959 5.55172C4.6337 5.57923 4.74086 5.59349 4.84853 5.59419C5.15669 5.5948 5.45439 5.48242 5.68526 5.27831C5.91614 5.07419 6.06417 4.79252 6.10134 4.48661C6.1385 4.18069 6.06222 3.87177 5.88694 3.61831C5.71166 3.36485 5.44954 3.18445 5.15019 3.11126C4.85085 3.03807 4.53506 3.07716 4.2626 3.22114C3.99013 3.36511 3.77991 3.60399 3.67173 3.89253C3.56354 4.18108 3.56489 4.49928 3.67553 4.7869C3.78617 5.07451 3.99842 5.31159 4.2721 5.45324L3.11651 7.52408C2.86529 7.37587 2.58096 7.2929 2.28945 7.28276C1.99794 7.27261 1.70853 7.33559 1.4476 7.46597C1.18668 7.59635 0.96254 7.78997 0.795629 8.02917C0.628719 8.26838 0.524345 8.54557 0.492025 8.83546C0.459704 9.12535 0.500467 9.41872 0.610594 9.68881C0.720722 9.95891 0.896711 10.1971 1.12251 10.3818C1.34832 10.5664 1.61675 10.6916 1.90334 10.7459C2.18992 10.8002 2.48554 10.7819 2.76324 10.6927L4.13205 13.3598C3.78615 13.6153 3.54676 13.9895 3.45984 14.4106L2.46599 14.1179C2.49209 14.0172 2.50544 13.9137 2.50574 13.8098C2.50604 13.5017 2.39322 13.2043 2.18869 12.974C1.98417 12.7437 1.70219 12.5965 1.3963 12.5604C1.09041 12.5243 0.781908 12.6018 0.529379 12.7782C0.27685 12.9545 0.0978792 13.2175 0.0264501 13.5171C-0.0449789 13.8167 -0.00389091 14.1321 0.141911 14.4035C0.287713 14.6748 0.528076 14.8831 0.817358 14.9889C1.10664 15.0947 1.42469 15.0905 1.71113 14.9773C1.99756 14.864 2.23242 14.6495 2.37112 14.3745L3.42461 14.6853C3.42461 14.7115 3.42461 14.7359 3.42461 14.7621C3.42461 15.0543 3.49798 15.3419 3.638 15.5984C3.77802 15.8549 3.98021 16.0722 4.22602 16.2303L3.55019 17.1175C3.30882 16.9055 2.9954 16.7939 2.67433 16.8058C2.35326 16.8176 2.04893 16.952 1.82386 17.1813C1.5988 17.4106 1.47009 17.7174 1.46418 18.0386C1.45827 18.3598 1.57562 18.6711 1.7921 18.9085C2.00859 19.1459 2.30777 19.2914 2.62819 19.3151C2.9486 19.3387 3.26591 19.2388 3.51492 19.0357C3.76393 18.8327 3.92573 18.542 3.96707 18.2234C4.00842 17.9048 3.92617 17.5824 3.73722 17.3226L4.47267 16.364C4.69398 16.4611 4.93302 16.5112 5.1747 16.5112C5.21174 16.5112 5.24878 16.5112 5.28492 16.5058L5.82703 19.5732C5.56247 19.6513 5.32016 19.7909 5.11992 19.9806C4.91967 20.1703 4.76718 20.4048 4.67492 20.6647C4.58267 20.9247 4.55326 21.2028 4.58912 21.4763C4.62497 21.7498 4.72506 22.0109 4.8812 22.2383C5.03735 22.4657 5.2451 22.6529 5.48748 22.7845C5.72986 22.9162 5.99997 22.9887 6.27571 22.9959C6.55145 23.0032 6.82499 22.945 7.07396 22.8263C7.32293 22.7075 7.54024 22.5315 7.70813 22.3127L10.2379 23.4393C10.2162 23.5326 10.205 23.6281 10.2045 23.7239C10.2034 24.034 10.3166 24.3336 10.5225 24.5654C10.7284 24.7972 11.0125 24.945 11.3205 24.9805C11.6285 25.016 11.9388 24.9368 12.192 24.7579C12.4453 24.579 12.6237 24.3131 12.6932 24.0109C12.7627 23.7088 12.7184 23.3916 12.5687 23.1201C12.4191 22.8485 12.1746 22.6417 11.882 22.5391C11.5895 22.4365 11.2693 22.4453 10.9828 22.5639C10.6964 22.6824 10.4637 22.9025 10.3292 23.1818L7.85992 22.0823C7.9682 21.883 8.03635 21.6645 8.06049 21.439L11.2761 20.652C11.3979 20.8748 11.5669 21.0683 11.7712 21.219C11.9756 21.3697 12.2104 21.474 12.4593 21.5245C12.7081 21.575 12.965 21.5706 13.212 21.5115C13.4589 21.4524 13.69 21.3401 13.889 21.1824L15.0925 22.2205C14.9573 22.5144 14.9398 22.8488 15.0436 23.1552C15.1475 23.4615 15.3647 23.7164 15.6507 23.8676C15.9367 24.0187 16.2697 24.0545 16.5813 23.9676C16.8929 23.8807 17.1593 23.6778 17.3259 23.4006C17.4925 23.1233 17.5465 22.7927 17.4769 22.4769C17.4072 22.161 17.2192 21.8838 16.9515 21.7023C16.6838 21.5207 16.3567 21.4486 16.0375 21.5008C15.7183 21.553 15.4312 21.7255 15.2352 21.9829L14.0905 20.9953C14.2615 20.8114 14.3907 20.5925 14.4691 20.3539L19.2495 20.5842C19.2513 20.8322 19.3265 21.0742 19.4655 21.2795C19.6046 21.4848 19.8014 21.6444 20.031 21.7381C20.2606 21.8317 20.5129 21.8553 20.7559 21.8058C20.9989 21.7564 21.2218 21.6361 21.3966 21.4601C21.5713 21.2841 21.69 21.0603 21.7377 20.8169C21.7855 20.5736 21.7601 20.3215 21.6648 20.0925C21.5695 19.8636 21.4085 19.668 21.2022 19.5304C20.9958 19.3928 20.7534 19.3193 20.5054 19.3193L20.5018 19.3166Z" fill="#FF0012"/>
</g>
<defs>
<clipPath id="clip0">
<rect width="93.4125" height="25" fill="white"/>
</clipPath>
</defs>
</svg>
