<svg width="10" height="10" viewBox="0 0 10 10" fill="none" xmlns="http://www.w3.org/2000/svg">
<path d="M9.67742 5.83767H9.05307C8.88658 5.83767 8.7409 5.98335 8.7409 6.14984V8.43913C8.7409 8.60562 8.59521 8.7513 8.42872 8.7513H1.56087C1.39438 8.7513 1.2487 8.60562 1.2487 8.43913V4.06868C1.2487 3.90218 1.39438 3.7565 1.56087 3.7565H2.39334C2.55983 3.7565 2.70552 3.61082 2.70552 3.44433V2.81998C2.70552 2.65349 2.55983 2.5078 2.39334 2.5078H0.832466C0.37461 2.5078 0 2.88241 0 3.34027V9.16753C0 9.62539 0.37461 10 0.832466 10H9.15713C9.61498 10 9.98959 9.62539 9.98959 9.16753V6.14984C9.98959 5.98335 9.84391 5.83767 9.67742 5.83767ZM6.65973 2.5078C4.57856 2.5078 2.6847 4.36004 2.51821 6.54526C2.4974 6.71176 2.64308 6.87825 2.83039 6.87825H3.45473C3.62123 6.87825 3.7461 6.75338 3.76691 6.6077C3.91259 5.04683 5.24454 3.7565 6.86785 3.7565H7.20083C7.38814 3.7565 7.47138 3.98543 7.34651 4.1103L6.20187 5.27575C6.077 5.40062 6.077 5.58793 6.20187 5.7128L6.63892 6.14984C6.76379 6.27471 6.95109 6.27471 7.07596 6.14984L9.90635 3.34027C10.0312 3.2154 10.0312 3.0281 9.90635 2.90323L7.09677 0.0936524C6.9719 -0.0312175 6.7846 -0.0312175 6.65973 0.0936524L6.22268 0.530697C6.09781 0.655567 6.077 0.842872 6.20187 0.967742L7.36733 2.13319C7.4922 2.25806 7.40895 2.48699 7.22164 2.48699L6.65973 2.5078Z" fill="#D3D3D4"/>
</svg>
