<svg width="23" height="26" viewBox="0 0 23 26" fill="none" xmlns="http://www.w3.org/2000/svg">
    <path d="M22.2983 13.2156C22.2983 15.0015 22.2841 16.7946 22.3054 18.5806C22.3125 19.0431 21.9065 19.6856 21.5009 19.9204C18.3488 21.7277 15.211 23.5492 12.0731 25.3779C11.696 25.5984 11.1802 25.4384 10.8102 25.225C7.6866 23.4034 4.56297 21.589 1.43223 19.796C1.02666 19.5612 0.664062 19.0534 0.664062 18.591C0.678293 14.9764 0.678293 11.3618 0.664062 7.74719C0.664062 7.28469 1.16533 6.34347 1.5709 6.10866C4.70165 4.3156 7.83239 2.50831 10.956 0.693896C11.326 0.480437 11.696 0.473574 12.0731 0.694149C13.1618 1.33453 14.2646 1.95356 15.3462 2.59394C15.6308 2.76471 16.4316 3.28191 15.7752 4.04394C15.5333 4.42106 15.0829 4.2076 14.7912 4.04394C13.8804 3.52452 12.9697 3.0051 12.0731 2.45722C11.6818 2.2153 11.3687 2.20107 10.956 2.44299C8.12412 4.10086 2.61145 7.4056 2.61145 7.4056C2.26992 7.60483 2.12761 7.84675 2.13473 8.24521C2.14896 11.5467 2.18641 14.5226 2.17218 17.8241C2.17218 18.2155 2.29314 18.4716 2.64179 18.6708C5.48792 20.3003 8.13427 21.786 10.9662 23.4439C11.3717 23.6787 11.6848 23.6858 12.0904 23.451C14.8867 21.8145 17.4235 20.2993 20.2412 18.6913C20.6681 18.4494 20.8247 18.1576 20.8247 17.6738C20.8033 14.4505 20.7717 11.4734 20.7931 8.25011C20.7931 7.73069 20.6152 7.43185 20.1598 7.20416C19.5693 6.91243 19.2227 6.62719 18.6463 6.29277C18.3617 6.12911 18.1085 5.67697 18.3148 5.31409C18.507 4.96544 19.0608 4.91992 19.3668 5.09781C20.1708 5.56742 21.0033 5.99434 21.7718 6.51376C22.0066 6.67029 22.2912 7.41878 22.2983 7.71763C22.3267 9.53915 22.2983 11.387 22.2983 13.2156Z" fill="#DADADA"/>
    <path d="M17.7283 4.71683C17.7225 4.57233 17.6323 4.44306 17.5351 4.32233C17.5007 4.27961 17.4645 4.23692 17.4271 4.19274C17.3507 4.10266 17.2691 4.00639 17.1868 3.89109L17.1109 3.78487L16.4807 4.66556C16.5833 4.93598 16.855 5.18673 17.117 5.29513L17.1169 5.29522L17.121 5.29671C17.1659 5.31304 17.2099 5.30147 17.2347 5.29294C17.2638 5.28292 17.2935 5.26726 17.3216 5.24981C17.3783 5.2146 17.4409 5.16418 17.4985 5.10879C17.5561 5.05336 17.6122 4.98969 17.6541 4.92649C17.6928 4.86821 17.7318 4.79226 17.7283 4.71683ZM17.7283 4.71683C17.7283 4.71702 17.7283 4.71722 17.7283 4.71741L17.6284 4.72125L17.7283 4.71626C17.7283 4.71645 17.7283 4.71664 17.7283 4.71683Z" fill="#DADADA" stroke="#DADADA" stroke-width="0.2"/>
    <path d="M7.79635 10.168V13.8859L5.41807 10.168H3.99609V16.168H5.41807V12.4671L7.79635 16.168H9.21832V10.168H7.79635Z" fill="#DADADA"/>
    <path d="M10.2491 16.168H11.671V13.7406H13.4506V12.6039H11.671V11.3389H14.0493V10.168H10.2491V16.168Z" fill="#DADADA"/>
    <path d="M14.4807 11.3389H16.0274V16.168H17.4494V11.3389H18.9961V10.168H14.4807V11.3389Z" fill="#DADADA"/>
</svg>
