<svg width="25" height="25" viewBox="0 0 25 25" fill="none" xmlns="http://www.w3.org/2000/svg">
    <path fill-rule="evenodd" clip-rule="evenodd" d="M2.34375 12.5C2.34375 6.89275 6.89275 2.34375 12.5 2.34375C18.1073 2.34375 22.6562 6.89275 22.6562 12.5C22.6562 18.1073 18.1073 22.6562 12.5 22.6562C6.89275 22.6562 2.34375 18.1073 2.34375 12.5ZM12.5 3.90625C7.75569 3.90625 3.90625 7.75569 3.90625 12.5C3.90625 17.2443 7.75569 21.0938 12.5 21.0938C17.2443 21.0938 21.0938 17.2443 21.0938 12.5C21.0938 7.75569 17.2443 3.90625 12.5 3.90625Z" fill="#DADADA"/>
    <path d="M17.1208 7.36782L11.3981 9.65688C11.0051 9.81406 10.6481 10.0494 10.3488 10.3488C10.0494 10.6481 9.81406 11.0051 9.65688 11.3981L7.36782 17.1208C7.3394 17.1917 7.33245 17.2695 7.34781 17.3444C7.36318 17.4193 7.40019 17.4881 7.45426 17.5421C7.50832 17.5962 7.57707 17.6332 7.65197 17.6486C7.72688 17.6639 7.80464 17.657 7.87563 17.6286L13.5983 15.3395C13.9913 15.1823 14.3483 14.9469 14.6476 14.6476C14.9469 14.3483 15.1823 13.9913 15.3395 13.5983L17.6286 7.87563C17.657 7.80464 17.6639 7.72688 17.6486 7.65197C17.6332 7.57707 17.5962 7.50832 17.5421 7.45426C17.4881 7.40019 17.4193 7.36318 17.3444 7.34781C17.2695 7.33245 17.1917 7.3394 17.1208 7.36782V7.36782ZM12.4982 13.6701C12.2664 13.6701 12.0398 13.6013 11.8471 13.4726C11.6544 13.3438 11.5042 13.1608 11.4155 12.9466C11.3268 12.7325 11.3036 12.4969 11.3488 12.2696C11.3941 12.0422 11.5057 11.8334 11.6696 11.6696C11.8334 11.5057 12.0422 11.3941 12.2696 11.3488C12.4969 11.3036 12.7325 11.3268 12.9466 11.4155C13.1608 11.5042 13.3438 11.6544 13.4726 11.8471C13.6013 12.0398 13.6701 12.2664 13.6701 12.4982C13.6701 12.809 13.5466 13.1071 13.3268 13.3268C13.1071 13.5466 12.809 13.6701 12.4982 13.6701Z" fill="#DADADA"/>
</svg>
