<svg width="22" height="24" viewBox="0 0 22 24" fill="none" xmlns="http://www.w3.org/2000/svg">
<g opacity="1" clip-path="url(#clip0_674_5773)">
<path d="M21.0187 12.0462C21.0187 13.8322 21.0044 15.6253 21.0258 17.4112C21.0329 17.8737 20.8764 18.1654 20.4708 18.4002C17.3187 20.2075 14.1808 22.0291 11.043 23.8577C10.6659 24.0783 10.3172 24.0498 9.94723 23.8363C6.8236 22.0148 3.69997 20.2004 0.569226 18.4074C0.163653 18.1725 0 17.8879 0 17.4254C0.0142307 13.8108 0.0142307 10.1963 0 6.58167C0 6.11918 0.156537 5.82745 0.562111 5.59264C3.69286 3.79958 6.8236 1.99228 9.94723 0.177876C10.3172 -0.0355842 10.6588 -0.0711608 11.0359 0.149414C12.1245 0.789794 13.2274 1.40883 14.3089 2.04921C14.5935 2.21998 14.928 2.43343 14.6718 2.83189C14.4299 3.20901 14.0883 3.03824 13.7966 2.87459C12.8859 2.35517 11.9751 1.83575 11.0786 1.28787C10.6872 1.04595 10.3741 1.03172 9.96146 1.27364C7.12956 2.93151 4.28343 4.56803 1.4373 6.19744C1.09576 6.39667 0.953454 6.63859 0.960569 7.03705C0.9748 10.3386 0.9748 13.6472 0.960569 16.9487C0.960569 17.34 1.08153 17.5962 1.43018 17.7954C4.27631 19.4248 7.12244 21.0614 9.95434 22.7192C10.3599 22.954 10.673 22.9612 11.0786 22.7264C13.8749 21.0898 16.6854 19.4675 19.5031 17.8595C19.93 17.6175 20.0866 17.3258 20.0866 16.842C20.0652 13.6187 20.0652 10.3884 20.0866 7.16513C20.0866 6.64571 19.9087 6.34687 19.4533 6.11918C18.8627 5.82745 18.3077 5.47168 17.7314 5.13726C17.4468 4.97361 17.1693 4.76015 17.3756 4.39727C17.5677 4.04861 17.8808 4.11265 18.1868 4.29054C18.9908 4.76015 19.8233 5.18707 20.5918 5.70649C20.8266 5.86302 21.0044 6.2686 21.0116 6.56744C21.04 8.38897 21.0187 10.2176 21.0187 12.0462Z" fill="white"/>
<path d="M16.0329 2.95898C16.2463 3.25783 16.474 3.43571 16.4811 3.62071C16.4882 3.76302 16.1538 4.06186 16.0755 4.0334C15.8692 3.94802 15.6557 3.74879 15.5775 3.54244C15.5419 3.44994 15.8052 3.23648 16.0329 2.95898Z" fill="white"/>
<path d="M6.892 9V12.7046L4.4563 9H3V14.9785H4.4563V11.2909L6.892 14.9785H8.3483V9H6.892Z" fill="white"/>
<path d="M9.40393 14.9785H10.8602V12.5599H12.6827V11.4272H10.8602V10.1667H13.2959V9H9.40393V14.9785Z" fill="white"/>
<path d="M13.7377 10.1667H15.3218V14.9785H16.7781V10.1667H18.3621V9H13.7377V10.1667Z" fill="white"/>
</g>
<defs>
<clipPath id="clip0_674_5773">
<rect width="21.0258" height="24" fill="white"/>
</clipPath>
</defs>
</svg>
