<svg width="13" height="16" viewBox="0 0 13 16" fill="none" xmlns="http://www.w3.org/2000/svg">
<path fill-rule="evenodd" clip-rule="evenodd" d="M2.95409 8.089C2.11403 7.62934 1.66853 6.88935 1.66853 5.88378C1.66853 4.58524 1.77673 3.28684 1.99584 1.97371C2.25215 0.69214 3.08272 0 4.37189 0H8.82448C9.92201 0 10.6292 0.707161 10.8825 1.97371C11.1012 3.06743 11.2098 4.37019 11.2098 5.88378C11.2098 6.78149 10.7822 7.48916 9.9719 7.99865C10.9317 8.26141 11.569 8.4719 11.9002 8.6375C12.6537 9.01425 12.8 9.38 12.8 10.3364C12.8 11.0743 12.2372 11.4495 11.3688 11.4495L11.2653 11.4382L9.13824 10.9655C9.47071 12.4001 9.72598 13.2989 9.88726 13.6215L9.92795 13.7107C10.3093 14.6336 9.48661 15.5841 8.50643 15.5841C7.89497 15.5841 7.41577 15.2646 7.12561 14.6843L7.08949 14.5866L6.59802 12.6207L6.09664 14.6218C5.80129 15.5078 5.10706 15.8549 4.22103 15.5596C3.33499 15.2642 2.98787 14.57 3.27555 13.7093L4.02187 10.9728L1.97841 11.425C1.09237 11.7204 0.398147 11.3733 0.102801 10.4872C-0.192545 9.60119 0.154568 8.90696 1.06594 8.60394L2.95409 8.089ZM4.72013 7.63301H8.43846C9.6936 7.26107 10.2557 6.68591 10.2557 5.88378C10.2557 4.42897 10.1522 3.1874 9.94689 2.16083C9.77614 1.30711 9.42316 0.954126 8.82447 0.954126H4.37189C3.54078 0.954126 3.09917 1.32213 2.93421 2.1457C2.72648 3.39204 2.62266 4.63798 2.62266 5.88378C2.62266 6.84317 3.21686 7.40343 4.567 7.61135L4.72013 7.63301ZM4.75377 8.58713L1.34233 9.51678C0.956197 9.64549 0.879254 9.79937 1.00796 10.1855C1.13667 10.5716 1.29056 10.6486 1.72406 10.5067L4.58644 9.87066C4.93698 9.79277 5.24466 10.1155 5.15018 10.4619L4.18838 13.9857C4.05967 14.3718 4.13662 14.5257 4.52275 14.6544C4.90888 14.7831 5.06276 14.7062 5.18124 14.3552L5.81732 11.8109C5.87041 11.5985 6.06123 11.4495 6.28014 11.4495H6.91622C7.13513 11.4495 7.32595 11.5985 7.37904 11.8109L8.00146 14.3005C8.13051 14.5366 8.28288 14.6299 8.50643 14.6299C8.87282 14.6299 9.15527 14.291 9.03386 14.0482C8.86511 13.7107 8.65302 13.0139 8.38809 11.935L8.19218 11.1097L8.04073 10.4399C7.96498 10.099 8.26906 9.79492 8.60992 9.87066L11.4199 10.4951C11.7788 10.491 11.8459 10.4417 11.8459 10.3364C11.8459 9.77709 11.836 9.68654 11.5866 9.54944L11.4735 9.4909C11.198 9.35313 10.5754 9.15113 9.62326 8.89276L9.05306 8.74153L8.44762 8.58713H4.75377ZM4.68993 5.88378C5.21688 5.88378 5.64405 5.4566 5.64405 4.92965C5.64405 4.4027 5.21688 3.97553 4.68993 3.97553C4.16298 3.97553 3.7358 4.4027 3.7358 4.92965C3.7358 5.4566 4.16298 5.88378 4.68993 5.88378ZM9.46056 4.92965C9.46056 5.4566 9.03338 5.88378 8.50643 5.88378C7.97948 5.88378 7.55231 5.4566 7.55231 4.92965C7.55231 4.4027 7.97948 3.97553 8.50643 3.97553C9.03338 3.97553 9.46056 4.4027 9.46056 4.92965Z" fill="#A2A5B5"/>
</svg>
