<svg width="16" height="16" viewBox="0 0 16 16" fill="none" xmlns="http://www.w3.org/2000/svg">
<g id="24 / notifications / question-circle">
<path id="icon" fill-rule="evenodd" clip-rule="evenodd" d="M0.666992 7.99996C0.666992 12.05 3.95024 15.3333 8.00033 15.3333C12.0504 15.3333 15.3337 12.05 15.3337 7.99996C15.3337 3.94987 12.0504 0.666626 8.00033 0.666626C3.95024 0.666626 0.666992 3.94987 0.666992 7.99996ZM14.0003 7.99996C14.0003 11.3137 11.314 14 8.00033 14C4.68662 14 2.00033 11.3137 2.00033 7.99996C2.00033 4.68625 4.68662 1.99996 8.00033 1.99996C11.314 1.99996 14.0003 4.68625 14.0003 7.99996ZM8.00055 11.3322C8.36886 11.3322 8.66743 11.0337 8.66743 10.6655C8.66743 10.2974 8.36886 9.99887 8.00055 9.99887C7.63223 9.99887 7.33366 10.2974 7.33366 10.6655C7.33366 11.0337 7.63223 11.3322 8.00055 11.3322ZM7.33366 9.33329H8.66699C8.66699 8.80106 8.75061 8.70351 9.29847 8.42958C10.2506 7.95351 10.667 7.46772 10.667 6.33329C10.667 4.88038 9.52322 3.99996 8.00033 3.99996C6.52757 3.99996 5.33366 5.19387 5.33366 6.66663H6.66699C6.66699 5.93025 7.26395 5.33329 8.00033 5.33329C8.85177 5.33329 9.33366 5.70423 9.33366 6.33329C9.33366 6.86553 9.25005 6.96308 8.70218 7.23701C7.75005 7.71308 7.33366 8.19886 7.33366 9.33329Z" fill="#D3D3D4"/>
</g>
</svg>
