<svg width="16" height="16" viewBox="0 0 16 16" fill="none" xmlns="http://www.w3.org/2000/svg">
<path fill-rule="evenodd" clip-rule="evenodd" d="M8 0C12.4183 0 16 3.58172 16 8C16 12.4183 12.4183 16 8 16C3.58172 16 0 12.4183 0 8C0 3.58172 3.58172 0 8 0ZM8.61539 14.359H7.38462V15.5897H8.61539V14.359ZM8 2.28571C4.84409 2.28571 2.28571 4.84409 2.28571 8C2.28571 11.1559 4.84409 13.7143 8 13.7143C11.1559 13.7143 13.7143 11.1559 13.7143 8C13.7143 4.84409 11.1559 2.28571 8 2.28571ZM12.7179 11.8477L11.8477 12.7179L12.7179 13.5882L13.5882 12.7179L12.7179 11.8477ZM3.28205 11.8477L2.41177 12.7179L3.28205 13.5882L4.15234 12.7179L3.28205 11.8477ZM1.84615 7.38462H0.615385V8.61539H1.84615V7.38462ZM15.3846 7.38462H14.1538V8.61539H15.3846V7.38462ZM3.28205 2.41177L2.41177 3.28205L3.28205 4.15234L4.15234 3.28205L3.28205 2.41177ZM12.7179 2.41177L11.8477 3.28205L12.7179 4.15234L13.5882 3.28205L12.7179 2.41177ZM8.61539 0.615385H7.38462V1.84615H8.61539V0.615385Z" fill="white"/>
<path fill-rule="evenodd" clip-rule="evenodd" d="M8.00008 3.69238C10.3791 3.69238 12.3078 5.621 12.3078 8.00008C12.3078 10.3791 10.3791 12.3078 8.00008 12.3078C5.621 12.3078 3.69238 10.3791 3.69238 8.00008C3.69238 5.621 5.621 3.69238 8.00008 3.69238ZM8.00008 5.53854L5.74366 7.94984L8.00008 10.4616L10.2565 7.94984L8.00008 5.53854Z" fill="white"/>
</svg>
