<svg width="73" height="66" viewBox="0 0 73 66" fill="none" xmlns="http://www.w3.org/2000/svg">
<path fill-rule="evenodd" clip-rule="evenodd" d="M12.5404 50.3266C12.7758 50.0664 13.0627 49.8585 13.3828 49.7162C13.7028 49.5739 14.0489 49.5002 14.3989 49.5L71.7417 49.5471C71.9859 49.5476 72.2247 49.6194 72.4291 49.7536C72.6335 49.8878 72.7947 50.0788 72.8931 50.3033C72.9915 50.5278 73.0229 50.7762 72.9834 51.0183C72.944 51.2603 72.8354 51.4857 72.6709 51.667L60.4596 65.1734C60.224 65.4338 59.9368 65.6418 59.6165 65.7841C59.2962 65.9265 58.9498 66 58.5996 66L1.2583 65.9529C1.01411 65.9524 0.775306 65.8806 0.570911 65.7464C0.366517 65.6122 0.205326 65.4212 0.106916 65.1967C0.0085064 64.9722 -0.0228858 64.7238 0.0165527 64.4817C0.0559912 64.2397 0.164563 64.0143 0.32908 63.833L12.5404 50.3266ZM72.6709 39.083C72.8354 39.2643 72.944 39.4897 72.9834 39.7317C73.0229 39.9738 72.9915 40.2222 72.8931 40.4467C72.7947 40.6712 72.6335 40.8622 72.4291 40.9964C72.2247 41.1306 71.9859 41.2024 71.7417 41.2029L14.4004 41.25C14.0502 41.25 13.7038 41.1764 13.3835 41.0341C13.0632 40.8918 12.776 40.6838 12.5404 40.4234L0.32908 26.9091C0.164563 26.7279 0.0559912 26.5025 0.0165527 26.2604C-0.0228858 26.0183 0.0085064 25.7699 0.106916 25.5454C0.205326 25.3209 0.366517 25.13 0.570911 24.9957C0.775306 24.8615 1.01411 24.7898 1.2583 24.7893L58.6011 24.7421C58.9511 24.7424 59.2972 24.816 59.6172 24.9584C59.9373 25.1007 60.2242 25.3086 60.4596 25.5687L72.6709 39.083ZM12.5404 0.826571C12.7758 0.566434 13.0627 0.358543 13.3828 0.216209C13.7028 0.0738755 14.0489 0.000234208 14.3989 0L71.7417 0.0471429C71.9859 0.0476415 72.2247 0.119363 72.4291 0.253595C72.6335 0.387828 72.7947 0.578794 72.8931 0.803298C72.9915 1.0278 73.0229 1.27618 72.9834 1.51826C72.944 1.76035 72.8354 1.98572 72.6709 2.167L60.4596 15.6734C60.224 15.9338 59.9368 16.1418 59.6165 16.2841C59.2962 16.4265 58.9498 16.5 58.5996 16.5L1.2583 16.4529C1.01411 16.4524 0.775306 16.3806 0.570911 16.2464C0.366517 16.1122 0.205326 15.9212 0.106916 15.6967C0.0085064 15.4722 -0.0228858 15.2238 0.0165527 14.9817C0.0559912 14.7397 0.164563 14.5143 0.32908 14.333L12.5404 0.826571Z" fill="#9945FF"/>
</svg>
