<svg width="114" height="14" viewBox="0 0 114 14" fill="none" xmlns="http://www.w3.org/2000/svg">
<g clip-path="url(#clip0)">
<path d="M33.6167 5.53714H25.3066V2.76857H35.7681V0H25.2874C24.5595 0 23.8615 0.289662 23.3468 0.805265C22.8321 1.32087 22.543 2.02017 22.543 2.74935V5.55637C22.543 6.28554 22.8321 6.98485 23.3468 7.50045C23.8615 8.01605 24.5595 8.30571 25.2874 8.30571H33.5975V11.0743H22.7406V13.8429H33.6167C34.3446 13.8429 35.0426 13.5532 35.5573 13.0376C36.072 12.522 36.3612 11.8227 36.3612 11.0935V8.28649C36.3612 7.55732 36.072 6.85801 35.5573 6.34241C35.0426 5.82681 34.3446 5.53714 33.6167 5.53714Z" fill="white"/>
<path d="M49.7083 0H41.3675C41.0072 -8.83817e-08 40.6504 0.0711277 40.3176 0.209319C39.9847 0.34751 39.6823 0.550056 39.4276 0.805381C39.1729 1.06071 38.9709 1.36381 38.8332 1.69736C38.6955 2.03092 38.6247 2.38839 38.625 2.74935V11.0935C38.6247 11.4545 38.6955 11.8119 38.8332 12.1455C38.9709 12.479 39.1729 12.7822 39.4276 13.0375C39.6823 13.2928 39.9847 13.4953 40.3176 13.6335C40.6504 13.7717 41.0072 13.8429 41.3675 13.8429H49.7083C50.4362 13.8429 51.1343 13.5532 51.6489 13.0376C52.1636 12.522 52.4528 11.8227 52.4528 11.0935V2.74935C52.4528 2.02017 52.1636 1.32087 51.6489 0.805265C51.1343 0.289662 50.4362 0 49.7083 0V0ZM49.6891 11.0743H41.3982V2.76857H49.6891V11.0743Z" fill="white"/>
<path d="M78.8975 6.73248e-07H70.764C70.0361 6.73248e-07 69.338 0.289663 68.8234 0.805265C68.3087 1.32087 68.0195 2.02017 68.0195 2.74935V13.8429H70.7832V9.29394H78.8783V13.8429H81.6419V2.74935C81.6422 2.38823 81.5714 2.0306 81.4336 1.69692C81.2957 1.36324 81.0936 1.06005 80.8387 0.804701C80.5838 0.549351 80.2811 0.346845 79.9481 0.208767C79.615 0.0706893 79.258 -0.000252124 78.8975 6.73248e-07ZM78.8783 6.52537H70.7832V2.76857H78.8783V6.52537Z" fill="white"/>
<path d="M111.257 6.05075e-06H103.125C102.764 -0.000752414 102.407 0.0698018 102.073 0.20763C101.74 0.345458 101.436 0.547853 101.181 0.803228C100.925 1.0586 100.723 1.36195 100.584 1.69589C100.446 2.02983 100.375 2.38782 100.375 2.74935V13.8429H103.139V9.29395H111.238V13.8429H114.001V2.74935C114.001 2.02018 113.712 1.32087 113.197 0.805271C112.683 0.289668 111.985 6.05075e-06 111.257 6.05075e-06ZM111.238 6.52537H103.144V2.76858H111.238V6.52537Z" fill="white"/>
<path d="M95.1561 11.0743H94.0507L90.0894 1.15357C89.9539 0.813185 89.7197 0.52132 89.4169 0.315682C89.1141 0.110044 88.7568 8.14611e-05 88.391 0L85.9306 0C85.4455 0 84.9803 0.193041 84.6373 0.536655C84.2943 0.88027 84.1016 1.34631 84.1016 1.83226V13.8429H86.8652V2.76857H87.9707L91.9299 12.6893C92.0649 13.0297 92.2987 13.3216 92.6012 13.5273C92.9037 13.733 93.2609 13.8429 93.6265 13.8429H96.0869C96.572 13.8429 97.0372 13.6498 97.3802 13.3062C97.7232 12.9626 97.9159 12.4965 97.9159 12.0106V0H95.1523L95.1561 11.0743Z" fill="white"/>
<path d="M57.666 0H54.9023V11.0935C54.9023 11.8227 55.1915 12.522 55.7062 13.0376C56.2209 13.5532 56.9189 13.8429 57.6468 13.8429H65.9569V11.0743H57.666V0Z" fill="white"/>
<path fill-rule="evenodd" clip-rule="evenodd" d="M2.92614 10.5552C2.9752 10.5019 3.03449 10.4592 3.10044 10.4294C3.1664 10.3997 3.23767 10.3836 3.30998 10.3821H15.3702C15.4212 10.3829 15.4709 10.3983 15.5134 10.4267C15.5559 10.4551 15.5892 10.4951 15.6095 10.542C15.6298 10.5889 15.6361 10.6407 15.6277 10.6912C15.6193 10.7416 15.5965 10.7885 15.5621 10.8263L13.0057 13.6698C12.9567 13.7231 12.8974 13.7658 12.8314 13.7956C12.7655 13.8253 12.6942 13.8414 12.6219 13.8429H0.55402C0.502992 13.8421 0.453259 13.8267 0.410802 13.7983C0.368344 13.7699 0.334972 13.7299 0.314698 13.683C0.294424 13.6361 0.288112 13.5843 0.296522 13.5338C0.304931 13.4834 0.327704 13.4365 0.362101 13.3987L2.92614 10.5552ZM15.5736 8.19805C15.608 8.23581 15.6308 8.28273 15.6392 8.33316C15.6476 8.38358 15.6413 8.43537 15.621 8.48228C15.6007 8.5292 15.5674 8.56925 15.5249 8.59761C15.4825 8.62598 15.4327 8.64145 15.3817 8.64217L3.31766 8.65179C3.24535 8.6503 3.17408 8.63422 3.10812 8.60448C3.04217 8.57475 2.98288 8.53198 2.93382 8.47875L0.358262 5.64481C0.323866 5.60704 0.301093 5.56013 0.292683 5.5097C0.284274 5.45928 0.290586 5.40749 0.31086 5.36057C0.331133 5.31366 0.364506 5.27361 0.406963 5.24524C0.44942 5.21688 0.499154 5.2014 0.550181 5.20068L12.6142 5.19107C12.6865 5.19255 12.7578 5.20864 12.8238 5.23837C12.8897 5.26811 12.949 5.31087 12.9981 5.36411L15.5736 8.19805ZM2.92614 0.173036C2.9752 0.119801 3.03449 0.0770361 3.10044 0.0473031C3.1664 0.0175701 3.23767 0.0014811 3.30998 0L15.3779 0.0096131C15.4289 0.010333 15.4786 0.0258063 15.5211 0.0541718C15.5635 0.0825372 15.5969 0.122587 15.6172 0.169503C15.6375 0.21642 15.6438 0.268205 15.6354 0.31863C15.6269 0.369055 15.6042 0.415972 15.5698 0.453738L13.0057 3.28768C12.9567 3.34091 12.8974 3.38368 12.8314 3.41341C12.7655 3.44314 12.6942 3.45923 12.6219 3.46071H0.55402C0.502992 3.45999 0.453259 3.44452 0.410802 3.41616C0.368344 3.38779 0.334972 3.34774 0.314698 3.30082C0.294424 3.25391 0.288112 3.20212 0.296522 3.1517C0.304931 3.10127 0.327704 3.05436 0.362101 3.01659L2.92614 0.173036Z" fill="url(#paint0_linear)"/>
</g>
<defs>
<linearGradient id="paint0_linear" x1="0.755535" y1="14.1447" x2="15.2021" y2="-0.276074" gradientUnits="userSpaceOnUse">
<stop stop-color="#9945FF"/>
<stop offset="0.14" stop-color="#8A53F4"/>
<stop offset="0.42" stop-color="#6377D6"/>
<stop offset="0.79" stop-color="#24B0A7"/>
<stop offset="0.99" stop-color="#00D18C"/>
<stop offset="1" stop-color="#00D18C"/>
</linearGradient>
<clipPath id="clip0">
<rect width="114" height="13.8429" fill="white"/>
</clipPath>
</defs>
</svg>
