<svg width="114" height="14" viewBox="0 0 114 14" fill="none" xmlns="http://www.w3.org/2000/svg">
<g clip-path="url(#clip0)">
<path d="M33.6167 5.52727H25.3066V2.76364H35.7681V0H25.2874C24.5595 0 23.8615 0.289146 23.3468 0.803829C22.8321 1.31851 22.543 2.01657 22.543 2.74444V5.54646C22.543 6.27434 22.8321 6.9724 23.3468 7.48708C23.8615 8.00176 24.5595 8.29091 25.2874 8.29091H33.5975V11.0545H22.7406V13.8182H33.6167C34.3446 13.8182 35.0426 13.529 35.5573 13.0144C36.072 12.4997 36.3612 11.8016 36.3612 11.0737V8.27172C36.3612 7.54385 36.072 6.84579 35.5573 6.3311C35.0426 5.81642 34.3446 5.52727 33.6167 5.52727Z" fill="black"/>
<path d="M49.7083 0H41.3675C41.0072 -8.82242e-08 40.6504 0.071001 40.3176 0.208946C39.9847 0.346891 39.6823 0.549075 39.4276 0.803945C39.1729 1.05882 38.9709 1.36138 38.8332 1.69434C38.6955 2.0273 38.6247 2.38413 38.625 2.74444V11.0737C38.6247 11.4341 38.6955 11.7909 38.8332 12.1238C38.9709 12.4568 39.1729 12.7594 39.4276 13.0142C39.6823 13.2691 39.9847 13.4713 40.3176 13.6092C40.6504 13.7472 41.0072 13.8182 41.3675 13.8182H49.7083C50.4362 13.8182 51.1343 13.529 51.6489 13.0144C52.1636 12.4997 52.4528 11.8016 52.4528 11.0737V2.74444C52.4528 2.01657 52.1636 1.31851 51.6489 0.803829C51.1343 0.289146 50.4362 0 49.7083 0V0ZM49.6891 11.0545H41.3982V2.76364H49.6891V11.0545Z" fill="black"/>
<path d="M78.8975 6.72048e-07H70.764C70.0361 6.72048e-07 69.338 0.289147 68.8234 0.80383C68.3087 1.31851 68.0195 2.01657 68.0195 2.74445V13.8182H70.7832V9.27737H78.8783V13.8182H81.642V2.74445C81.6422 2.38397 81.5714 2.02698 81.4336 1.69389C81.2957 1.36081 81.0936 1.05816 80.8387 0.803267C80.5838 0.548372 80.2811 0.346227 79.9481 0.208395C79.615 0.0705632 79.258 -0.000251674 78.8975 6.72048e-07ZM78.8783 6.51374H70.7832V2.76364H78.8783V6.51374Z" fill="black"/>
<path d="M111.257 6.03997e-06H103.125C102.764 -0.000751073 102.407 0.0696774 102.073 0.20726C101.74 0.344842 101.436 0.546876 101.181 0.801797C100.925 1.05672 100.723 1.35952 100.584 1.69287C100.446 2.02621 100.375 2.38356 100.375 2.74445V13.8182H103.139V9.27738H111.238V13.8182H114.001V2.74445C114.001 2.01658 113.712 1.31852 113.197 0.803835C112.683 0.289152 111.985 6.03997e-06 111.257 6.03997e-06ZM111.238 6.51374H103.144V2.76364H111.238V6.51374Z" fill="black"/>
<path d="M95.1561 11.0545H94.0507L90.0894 1.15152C89.9539 0.811735 89.7197 0.520391 89.4169 0.315119C89.1141 0.109848 88.7568 8.13159e-05 88.391 0L85.9306 0C85.4455 0 84.9803 0.192697 84.6373 0.535699C84.2943 0.878701 84.1016 1.34391 84.1016 1.82899V13.8182H86.8652V2.76364H87.9707L91.9299 12.6667C92.0649 13.0064 92.2987 13.2979 92.6012 13.5032C92.9037 13.7085 93.2609 13.8182 93.6265 13.8182H96.0869C96.572 13.8182 97.0372 13.6255 97.3802 13.2825C97.7232 12.9395 97.9159 12.4743 97.9159 11.9892V0H95.1523L95.1561 11.0545Z" fill="black"/>
<path d="M57.666 0H54.9023V11.0737C54.9023 11.8016 55.1915 12.4997 55.7062 13.0144C56.2209 13.529 56.9189 13.8182 57.6468 13.8182H65.9569V11.0545H57.666V0Z" fill="black"/>
<path fill-rule="evenodd" clip-rule="evenodd" d="M2.92614 10.5364C2.9752 10.4832 3.03449 10.4405 3.10045 10.4109C3.1664 10.3812 3.23767 10.3651 3.30998 10.3636H15.3702C15.4212 10.3644 15.4709 10.3798 15.5134 10.4081C15.5559 10.4364 15.5892 10.4764 15.6095 10.5232C15.6298 10.5701 15.6361 10.6218 15.6277 10.6721C15.6193 10.7224 15.5965 10.7693 15.5621 10.807L13.0057 13.6455C12.9567 13.6986 12.8974 13.7413 12.8314 13.771C12.7655 13.8006 12.6942 13.8167 12.6219 13.8182H0.55402C0.502992 13.8175 0.453259 13.802 0.410802 13.7737C0.368344 13.7454 0.334972 13.7054 0.314698 13.6586C0.294424 13.6117 0.288112 13.5601 0.296522 13.5097C0.304931 13.4594 0.327704 13.4125 0.362101 13.3748L2.92614 10.5364ZM15.5736 8.18343C15.608 8.22113 15.6308 8.26797 15.6392 8.3183C15.6476 8.36864 15.6413 8.42033 15.621 8.46716C15.6007 8.514 15.5674 8.55397 15.5249 8.58229C15.4825 8.6106 15.4327 8.62605 15.3817 8.62677L3.31766 8.63636C3.24535 8.63488 3.17408 8.61882 3.10812 8.58914C3.04217 8.55946 2.98288 8.51678 2.93382 8.46364L0.358262 5.63475C0.323866 5.59705 0.301093 5.55021 0.292683 5.49988C0.284274 5.44954 0.290586 5.39785 0.31086 5.35102C0.331133 5.30419 0.364506 5.26421 0.406963 5.23589C0.44942 5.20758 0.499154 5.19213 0.550181 5.19141L12.6142 5.18182C12.6865 5.1833 12.7578 5.19936 12.8238 5.22904C12.8897 5.25872 12.949 5.30141 12.9981 5.35455L15.5736 8.18343ZM2.92614 0.172727C2.9752 0.119587 3.03449 0.0768987 3.10045 0.0472188C3.1664 0.0175388 3.23767 0.00147846 3.30998 0L15.3779 0.00959596C15.4289 0.0103146 15.4786 0.0257603 15.5211 0.0540752C15.5635 0.0823901 15.5969 0.122368 15.6172 0.169201C15.6375 0.216034 15.6438 0.267727 15.6354 0.318062C15.6269 0.368397 15.6042 0.41523 15.5698 0.452929L13.0057 3.28182C12.9567 3.33496 12.8974 3.37765 12.8314 3.40733C12.7655 3.43701 12.6942 3.45307 12.6219 3.45455H0.55402C0.502992 3.45383 0.453259 3.43838 0.410802 3.41007C0.368344 3.38175 0.334972 3.34177 0.314698 3.29494C0.294424 3.24811 0.288112 3.19641 0.296522 3.14608C0.304931 3.09574 0.327704 3.04891 0.362101 3.01121L2.92614 0.172727Z" fill="url(#paint0_linear)"/>
</g>
<defs>
<linearGradient id="paint0_linear" x1="0.755535" y1="14.1195" x2="15.1763" y2="-0.301312" gradientUnits="userSpaceOnUse">
<stop stop-color="#9945FF"/>
<stop offset="0.14" stop-color="#8A53F4"/>
<stop offset="0.42" stop-color="#6377D6"/>
<stop offset="0.79" stop-color="#24B0A7"/>
<stop offset="0.99" stop-color="#00D18C"/>
<stop offset="1" stop-color="#00D18C"/>
</linearGradient>
<clipPath id="clip0">
<rect width="114" height="13.8182" fill="white"/>
</clipPath>
</defs>
</svg>
