<svg width="11" height="11" viewBox="0 0 11 11" fill="none" xmlns="http://www.w3.org/2000/svg">
<path d="M10.9433 8.67272L9.12747 10.8502C9.088 10.8975 9.04024 10.9352 8.98716 10.961C8.93409 10.9868 8.87684 11 8.81898 11H0.210811C0.169737 11 0.129558 10.9866 0.0952101 10.9614C0.0608626 10.9362 0.033843 10.9004 0.0174711 10.8582C0.00109916 10.8161 -0.00391187 10.7696 0.00305366 10.7243C0.0100192 10.6791 0.0286579 10.6371 0.0566796 10.6035L1.87393 8.426C1.9133 8.37883 1.96091 8.34119 2.01381 8.31542C2.06671 8.28965 2.12379 8.2763 2.18149 8.27619H10.7892C10.8303 8.27619 10.8704 8.28961 10.9048 8.31479C10.9391 8.33998 10.9662 8.37583 10.9825 8.41795C10.9989 8.46007 11.0039 8.50662 10.9969 8.55188C10.99 8.59714 10.9713 8.63914 10.9433 8.67272ZM9.12747 4.2879C9.088 4.2406 9.04024 4.20289 8.98716 4.17712C8.93409 4.15134 8.87684 4.13806 8.81898 4.1381H0.210811C0.169737 4.1381 0.129558 4.15151 0.0952101 4.1767C0.0608626 4.20188 0.033843 4.23774 0.0174711 4.27986C0.00109916 4.32197 -0.00391187 4.36852 0.00305366 4.41378C0.0100192 4.45904 0.0286579 4.50104 0.0566796 4.53462L1.87393 6.7121C1.9133 6.75927 1.96091 6.79691 2.01381 6.82267C2.06671 6.84844 2.12379 6.86179 2.18149 6.8619H10.7892C10.8303 6.8619 10.8704 6.84849 10.9048 6.8233C10.9391 6.79812 10.9662 6.76226 10.9825 6.72014C10.9989 6.67803 11.0039 6.63148 10.9969 6.58622C10.99 6.54096 10.9713 6.49896 10.9433 6.46538L9.12747 4.2879ZM0.210811 2.72381H8.81898C8.87684 2.72384 8.93409 2.71056 8.98716 2.68479C9.04024 2.65901 9.088 2.6213 9.12747 2.574L10.9433 0.396524C10.9713 0.362946 10.99 0.320947 10.9969 0.275688C11.0039 0.230428 10.9989 0.183879 10.9825 0.14176C10.9662 0.0996412 10.9391 0.063787 10.9048 0.0386029C10.8704 0.0134187 10.8303 1.55093e-06 10.7892 0L2.18149 0C2.12379 0.0001098 2.06671 0.0134624 2.01381 0.039231C1.96091 0.0649997 1.9133 0.102636 1.87393 0.14981L0.0571481 2.32729C0.0291534 2.36083 0.010523 2.40278 0.00354161 2.44799C-0.00343972 2.4932 0.00153155 2.53971 0.0178458 2.58181C0.03416 2.62391 0.0611078 2.65977 0.0953846 2.68499C0.129661 2.71022 0.169777 2.72371 0.210811 2.72381Z" fill="url(#paint0_linear_543_12022)"/>
<defs>
<linearGradient id="paint0_linear_543_12022" x1="0.928529" y1="11.2622" x2="11.094" y2="1.01321" gradientUnits="userSpaceOnUse">
<stop offset="0.08" stop-color="#9945FF"/>
<stop offset="0.3" stop-color="#8752F3"/>
<stop offset="0.5" stop-color="#5497D5"/>
<stop offset="0.6" stop-color="#43B4CA"/>
<stop offset="0.72" stop-color="#28E0B9"/>
<stop offset="0.97" stop-color="#19FB9B"/>
</linearGradient>
</defs>
</svg>
